# xmcd CD database file
#
# Track frame offsets:
#	150
#	13855
#	34911
#	70166
#	87950
#	113724
#	154443
#	177846
#	202850
#	213880
#	223361
#	251089
#
# Disc length: 3740 seconds
#
# Revision: 0
# Processed by: cddbd v1.5.1PL0 Copyright (c) Steve Scherf et al.
# Submitted via: CDex 1.51
#
DISCID=ac0e9a0c
DTITLE=WASABI - Antimonio
DYEAR=2005
DGENRE=Jazz
TTITLE0=Mme Dubois
TTITLE1=El Enanito
TTITLE2=El Bosco
TTITLE3=La Clásica
TTITLE4=Por dónde quieren andar?
TTITLE5=Beduino
TTITLE6=Uma 8'
TTITLE7=Soy la Nena
TTITLE8=Parque Jazz
TTITLE9=Caratocar
TTITLE10=Habitaciones
TTITLE11=Mme Dubois II
EXTD=YEAR: 2005
EXTT0=
EXTT1=
EXTT2=
EXTT3=
EXTT4=
EXTT5=
EXTT6=
EXTT7=
EXTT8=
EXTT9=
EXTT10=
EXTT11=
PLAYORDER=
